<?xml version="1.0" standalone="no"?>
<!DOCTYPE svg PUBLIC "-//W3C//DTD SVG 20010904//EN"
 "http://www.w3.org/TR/2001/REC-SVG-20010904/DTD/svg10.dtd">
<svg version="1.0" xmlns="http://www.w3.org/2000/svg"
 width="500.000000pt" height="500.000000pt" viewBox="0 0 500.000000 500.000000"
 preserveAspectRatio="xMidYMid meet">

<g transform="translate(0.000000,500.000000) scale(0.100000,-0.100000)"
fill="#000000" stroke="none">
<path d="M2630 3589 c0 -26 -3 -30 -17 -24 -10 3 -22 7 -28 8 -13 3 -16 -111
-3 -119 6 -4 37 -6 69 -5 60 1 79 -12 34 -23 -14 -4 -25 -13 -25 -22 0 -12 10
-15 45 -13 37 3 48 -1 60 -18 13 -19 13 -21 -5 -26 -33 -8 -23 -26 25 -47 25
-11 45 -22 45 -25 0 -17 -22 -45 -35 -45 -8 0 -15 -4 -15 -10 0 -5 8 -10 18
-10 20 0 62 -39 62 -58 0 -15 -30 -15 -64 -2 -18 6 -26 6 -26 -1 0 -16 54 -59
67 -54 7 2 12 1 11 -3 -1 -4 4 -20 10 -35 7 -16 12 -52 12 -81 0 -46 -3 -54
-21 -59 -16 -4 -19 -2 -14 11 15 35 18 109 5 117 -23 14 -40 -23 -33 -73 6
-41 4 -45 -12 -38 -11 4 -22 2 -27 -6 -6 -10 -8 -10 -8 0 0 6 -7 12 -15 12 -9
0 -15 10 -15 26 0 18 -4 25 -14 21 -10 -4 -16 6 -20 34 -8 53 -22 49 -37 -10
l-12 -49 -21 41 c-24 47 -46 60 -46 27 0 -26 15 -57 44 -89 l21 -24 -33 17
c-19 10 -36 15 -40 12 -8 -8 28 -46 60 -62 21 -11 28 -24 34 -60 5 -36 9 -43
16 -30 5 9 6 25 3 36 -5 14 2 22 30 35 19 10 35 22 36 29 0 6 5 0 10 -13 8
-19 5 -31 -16 -61 -14 -20 -25 -40 -25 -46 0 -8 42 -11 60 -4 3 1 9 2 13 1 4
-1 21 6 37 14 16 8 32 15 35 15 3 0 3 -95 0 -212 l-5 -212 -32 -13 c-17 -7
-33 -11 -36 -9 -2 3 10 23 28 44 23 29 30 46 25 61 -3 12 -11 21 -16 21 -6 0
-17 7 -25 15 -9 8 -26 15 -40 15 -15 0 -24 -6 -24 -15 0 -9 -9 -15 -25 -15
-20 0 -25 -5 -25 -25 0 -18 11 -33 40 -53 25 -17 39 -35 40 -49 0 -13 -5 -23
-10 -23 -44 0 -240 -169 -240 -206 0 -28 -18 -13 -33 29 -15 38 -15 46 -1 86
22 63 33 81 50 81 21 0 74 29 74 40 0 6 -17 10 -37 11 -38 0 -38 0 16 17 68
22 84 48 22 37 -22 -4 -41 -4 -41 0 0 22 25 44 64 55 46 13 120 66 111 80 -3
4 -23 0 -45 -11 -51 -25 -85 -26 -75 -1 4 9 14 37 23 62 17 50 27 60 60 60 15
0 22 6 22 19 0 14 -5 18 -20 14 -11 -3 -23 -9 -26 -14 -11 -19 -24 -9 -14 11
13 24 2 50 -11 29 -7 -11 -9 -11 -9 -1 0 7 -4 11 -10 7 -6 -4 -5 -14 1 -29 9
-19 6 -37 -11 -87 -33 -94 -33 -94 -64 -29 -15 33 -32 60 -38 60 -16 0 -4
-112 16 -151 23 -45 20 -71 -3 -33 -11 18 -24 35 -30 38 -16 10 -14 -35 5 -79
16 -39 12 -57 -8 -37 -7 7 -16 12 -20 12 -11 0 -10 -37 2 -59 6 -13 4 -32 -9
-65 l-18 -48 -29 85 -30 85 33 36 c26 28 33 44 33 76 0 22 -4 40 -9 40 -13 0
-71 -72 -71 -88 0 -8 -6 -12 -12 -10 -17 6 -22 101 -8 128 9 16 21 20 60 20
28 0 49 3 48 8 0 4 2 15 7 25 4 10 4 21 0 25 -4 4 -10 1 -12 -5 -3 -7 -9 -13
-15 -13 -6 0 -6 6 2 15 6 8 9 19 6 24 -4 5 -2 12 4 16 5 3 10 14 10 24 0 14
-6 17 -30 13 -24 -3 -30 -1 -30 14 -1 13 -5 10 -14 -11 -8 -20 -15 -25 -20
-17 -10 16 -26 6 -26 -18 0 -29 28 -32 46 -5 18 28 38 24 29 -6 -4 -12 -2 -19
6 -19 10 0 10 -3 1 -12 -8 -8 -15 -8 -27 2 -11 9 -19 10 -27 2 -6 -6 -16 -8
-23 -6 -8 3 -15 -10 -21 -38 l-8 -43 -4 43 c-2 23 -8 42 -14 42 -7 0 -9 -22
-4 -67 l7 -68 -63 65 c-35 36 -79 78 -99 93 -24 18 -40 41 -48 69 -23 79 -46
131 -58 136 -7 2 -13 -5 -13 -15 -1 -11 -9 -3 -22 22 -11 22 -28 48 -37 59
-20 23 -71 50 -79 42 -3 -4 4 -37 16 -74 27 -85 27 -84 -4 -72 -35 14 -81 13
-90 -2 -9 -14 69 -86 102 -94 l23 -6 -20 -21 c-11 -12 -25 -30 -30 -39 -8 -15
-6 -18 10 -18 23 0 131 38 145 51 11 9 91 -46 151 -104 l40 -39 -30 7 c-16 3
-46 22 -65 41 -20 19 -39 34 -43 34 -14 0 -7 -51 8 -56 19 -8 20 -24 1 -24
-16 0 -46 -26 -46 -41 0 -12 47 -12 55 1 3 5 16 15 28 21 21 12 21 11 5 -8
-10 -11 -18 -30 -18 -42 0 -35 32 -22 42 17 8 29 12 32 46 32 30 0 42 -6 64
-34 l27 -34 -39 5 c-42 6 -90 -2 -90 -15 0 -13 92 -42 132 -42 38 0 46 -7 67
-62 8 -23 7 -24 -20 -20 -36 5 -119 -7 -119 -17 0 -12 73 -31 122 -31 l44 0
17 -55 c20 -65 20 -75 7 -111 l-10 -26 -29 39 c-25 35 -75 63 -88 50 -7 -8 48
-67 62 -67 17 0 59 -57 47 -64 -4 -2 -26 13 -48 34 -68 64 -165 133 -246 174
-66 33 -78 43 -78 64 0 27 -45 112 -60 112 -5 0 -6 -25 -3 -55 6 -59 3 -62
-44 -44 -42 16 -73 49 -73 80 0 21 8 30 36 44 19 9 38 23 40 30 7 17 -24 65
-41 65 -7 0 -15 9 -18 20 -3 11 -10 20 -15 20 -17 0 -26 -40 -23 -107 1 -35 0
-63 -3 -63 -8 0 -67 99 -75 128 -8 26 -5 34 25 63 49 48 42 97 -8 52 -17 -15
-18 -14 -18 25 0 51 -8 72 -27 72 -13 0 -15 -9 -10 -47 3 -27 9 -57 12 -68 4
-11 -14 4 -40 32 -26 29 -51 50 -56 47 -11 -7 14 -57 44 -85 l22 -21 -32 16
c-18 9 -34 16 -38 16 -11 0 -4 -28 10 -40 12 -10 13 -16 3 -27 -10 -13 -8 -19
12 -35 14 -11 34 -18 46 -15 30 5 35 1 67 -56 l28 -47 -58 25 c-56 25 -66 33
-106 90 -11 15 -25 24 -32 21 -14 -5 -45 23 -45 41 0 13 -33 43 -48 43 -21 0
-13 -26 23 -80 19 -29 35 -53 35 -55 0 -1 -13 -5 -30 -8 -54 -11 -32 -27 38
-28 77 -1 164 -30 126 -43 -12 -3 -33 -2 -48 4 -39 14 -129 13 -124 -2 5 -14
63 -36 96 -37 13 -1 21 -5 18 -10 -7 -10 3 -41 13 -41 3 0 16 16 28 35 29 43
57 51 108 28 l40 -18 -50 -3 c-60 -4 -76 -16 -49 -37 17 -15 10 -16 -86 -12
-98 3 -110 6 -185 42 -44 21 -83 41 -86 42 -4 2 -9 -6 -13 -19 -3 -13 -31 -54
-62 -93 -75 -93 -85 -119 -88 -232 -2 -93 -2 -96 -31 -117 -16 -11 -38 -26
-50 -31 -23 -12 -29 -33 -16 -54 19 -30 308 -40 591 -21 143 10 1087 29 1495
30 301 1 614 17 632 32 8 6 13 22 10 34 -2 13 2 25 9 28 16 6 9 32 -16 61 -10
11 -21 34 -24 50 -5 22 -15 34 -36 42 -22 8 -31 21 -40 54 -7 24 -21 61 -32
81 -20 34 -25 37 -92 49 -79 13 -81 12 57 54 48 15 87 33 87 39 0 16 -55 82
-139 169 -51 52 -72 67 -94 67 -36 0 -103 -33 -201 -99 -66 -45 -225 -126
-232 -119 -1 2 0 15 3 29 3 16 17 32 40 44 45 25 117 105 104 118 -6 6 -31 -4
-68 -25 l-58 -34 5 69 c5 72 6 73 63 96 17 7 27 18 27 31 0 28 -23 25 -59 -9
-18 -17 -31 -23 -31 -16 0 19 38 82 54 88 7 3 34 -6 61 -19 27 -13 51 -21 53
-19 3 3 -7 19 -20 38 l-26 33 24 27 c23 27 33 77 16 77 -4 0 -24 -22 -45 -50
-20 -27 -46 -54 -56 -60 -19 -10 -19 -8 -9 22 13 38 36 68 53 68 14 0 39 28
49 54 6 19 -2 19 -46 1 -16 -6 -18 -1 -18 42 0 57 -23 98 -40 73 -13 -20 -13
-38 5 -96 12 -42 12 -46 0 -30 -21 28 -30 12 -18 -29 8 -26 8 -46 -3 -80 -23
-79 -29 -83 -47 -31 -15 45 -15 46 9 65 14 11 24 29 24 43 0 31 -9 41 -25 28
-9 -8 -11 -4 -8 14 5 26 -15 46 -26 27 -5 -7 -15 5 -26 31 l-19 43 -5 -64 -6
-64 -39 47 c-23 29 -42 44 -48 38 -14 -14 9 -54 45 -79 l32 -23 -33 0 c-17 0
-32 -4 -32 -10 0 -15 36 -30 74 -30 33 0 36 -3 55 -55 12 -31 21 -68 21 -83 0
-25 -2 -24 -50 26 -49 51 -80 66 -80 38 0 -8 5 -18 10 -21 8 -5 7 -12 -1 -22
-8 -9 -9 -17 -3 -21 5 -4 9 -14 9 -22 0 -12 10 -14 43 -12 62 5 72 -8 72 -93
0 -39 -3 -75 -7 -78 -3 -4 -22 11 -40 33 -19 22 -44 45 -54 51 -19 10 -20 8
-13 -28 9 -52 38 -107 69 -131 14 -11 25 -26 25 -33 0 -8 -11 -2 -25 14 -24
26 -55 36 -55 19 0 -4 11 -23 25 -42 l25 -33 -82 -28 c-46 -16 -86 -25 -91
-20 -5 5 -5 122 0 262 4 140 5 288 2 329 l-6 74 44 57 c60 80 58 102 -7 54
-19 -14 -35 -25 -37 -25 -2 0 0 30 3 67 6 60 5 66 -10 60 -15 -6 -16 -2 -11
37 l7 43 -39 6 -39 7 1 52 c0 48 -2 53 -23 56 -13 2 -30 -2 -37 -8 -12 -10
-17 -7 -25 15 -5 14 -10 42 -10 61 0 36 -28 74 -55 74 -10 0 -15 -10 -15 -31z
m50 -26 c0 -8 -4 -12 -9 -8 -5 3 -12 -3 -14 -12 -3 -10 -5 -1 -6 21 -1 33 1
37 14 26 8 -7 15 -19 15 -27z m-58 -31 c-7 -2 -10 -8 -6 -13 6 -10 -9 -13 -19
-3 -11 12 5 33 21 27 10 -4 12 -8 4 -11z m3 -52 c-27 -12 -43 -12 -25 0 8 5
22 9 30 9 10 0 8 -3 -5 -9z m155 -37 c0 -8 -4 -12 -9 -9 -5 4 -12 0 -14 -6 -3
-7 -6 -4 -6 8 -1 12 5 21 14 21 8 0 15 -7 15 -14z m417 -355 c-3 -7 -5 -2 -5
12 0 14 2 19 5 13 2 -7 2 -19 0 -25z m-370 -105 c-3 -10 -5 -4 -5 12 0 17 2
24 5 18 2 -7 2 -21 0 -30z m-869 -34 c20 -18 73 -113 72 -128 -1 -3 -12 7 -25
24 -31 38 -44 26 -15 -14 12 -17 17 -31 12 -31 -14 0 -37 38 -52 85 -7 22 -16
50 -21 63 -11 28 1 28 29 1z m912 -81 c-1 -13 -68 -60 -105 -75 -18 -6 -18 -5
2 27 12 19 36 39 55 46 45 16 48 16 48 2z m-936 -43 c44 -19 48 -28 5 -13 -51
18 -43 1 13 -25 31 -15 43 -24 28 -22 -14 2 -32 4 -40 4 -15 1 -80 53 -80 65
0 11 37 6 74 -9z m1093 -11 c-3 -3 -12 -4 -19 -1 -8 3 -5 6 6 6 11 1 17 -2 13
-5z m-1040 -80 c-3 -3 -12 -4 -19 -1 -8 3 -5 6 6 6 11 1 17 -2 13 -5z m-17
-29 c0 -1 -9 -5 -19 -8 -13 -3 -18 -1 -14 9 4 10 33 10 33 -1z m1643 -102 c33
-32 77 -80 99 -107 l39 -49 -37 -13 c-142 -49 -218 -60 -379 -56 l-90 2 135
138 135 137 -140 -136 -140 -137 -102 -5 c-88 -5 -124 -11 -201 -33 -7 -2 -16
-4 -20 -5 -66 -18 -227 -115 -284 -173 -52 -52 -48 -68 5 -19 134 123 315 201
487 210 l95 5 -35 -35 c-35 -35 -36 -36 -132 -39 -54 -2 -98 -6 -98 -9 0 -4
-14 -9 -32 -13 -60 -12 -196 -85 -250 -135 -54 -50 -55 -50 -74 -30 -20 19
-20 19 -49 -41 -16 -33 -35 -60 -42 -60 -7 0 -13 2 -13 4 0 15 54 126 61 126
5 0 8 4 6 9 -3 14 68 87 120 122 63 43 191 101 206 93 6 -4 9 -3 4 1 -4 5 54
30 128 56 166 58 244 94 327 150 170 116 192 119 271 42z m-573 22 c11 -13 10
-14 -4 -9 -9 3 -16 10 -16 15 0 13 6 11 20 -6z m-603 -1 c-3 -3 -12 -4 -19 -1
-8 3 -5 6 6 6 11 1 17 -2 13 -5z m-732 -14 c3 -5 15 -10 26 -10 10 0 19 -4 19
-10 0 -11 -26 -3 -55 17 -11 7 -14 13 -8 13 7 0 15 -4 18 -10z m1474 -13 c-2
-1 -13 -9 -24 -17 -19 -14 -19 -14 -6 3 7 9 18 17 24 17 6 0 8 -1 6 -3z m-109
-42 l25 -30 -27 24 c-16 14 -28 29 -28 34 0 6 1 8 3 6 1 -2 13 -17 27 -34z
m-1170 -10 c-7 -9 -15 -13 -17 -11 -7 7 7 26 19 26 6 0 6 -6 -2 -15z m30 -20
c0 -2 -15 -12 -32 -21 l-33 -17 19 22 c17 19 46 29 46 16z m496 -59 c-32 -31
-33 -24 -4 17 12 17 23 26 25 20 2 -6 -7 -23 -21 -37z m-166 20 c0 -11 -19
-15 -25 -6 -3 5 1 10 9 10 9 0 16 -2 16 -4z m527 -9 c0 -8 -6 -14 -14 -14 -7
0 -13 6 -13 14 0 7 6 13 13 13 8 0 14 -6 14 -13z m-1138 -23 c12 -11 -8 -10
-39 2 l-35 14 35 -6 c19 -4 37 -8 39 -10z m1076 -14 c1 -10 -2 -17 -7 -14 -4
3 -8 15 -8 26 0 26 13 15 15 -12z m105 5 c0 -8 -4 -15 -9 -15 -13 0 -22 16
-14 24 11 11 23 6 23 -9z m-1382 -39 c26 -13 62 -30 80 -37 l34 -12 -79 -81
-78 -81 82 79 82 79 105 2 105 1 33 -33 c32 -33 32 -33 7 -33 -13 0 -67 -14
-119 -31 -52 -17 -108 -35 -125 -39 -16 -5 -56 -16 -89 -24 -32 -9 -67 -14
-77 -11 -9 3 -20 1 -24 -5 -3 -5 -35 -10 -71 -10 -60 0 -64 1 -64 23 0 30 35
93 50 89 6 -1 9 2 5 8 -3 6 14 34 39 62 25 29 46 58 46 65 0 17 3 17 58 -11z
m421 -19 c8 -11 4 -13 -20 -9 -22 3 -27 7 -18 13 19 12 25 11 38 -4z m155 -2
c3 -8 1 -15 -4 -15 -6 0 -10 7 -10 15 0 8 2 15 4 15 2 0 6 -7 10 -15z m-61
-52 c45 -14 84 -28 86 -29 2 -2 -2 -10 -8 -18 -10 -11 -19 -13 -38 -5 -14 5
-54 11 -91 13 -57 4 -69 9 -96 35 l-31 31 48 0 c26 0 85 -12 130 -27z m1585
17 c15 -5 53 -14 85 -20 55 -11 59 -14 76 -53 10 -23 21 -54 24 -68 7 -26 7
-26 -36 -16 -23 5 -48 12 -56 14 -10 3 -3 16 25 46 l39 42 -46 -43 -47 -44
-103 23 c-57 12 -159 31 -227 43 l-122 21 32 33 33 32 148 -1 c81 0 160 -4
175 -9z m-991 -6 c-3 -3 -12 -4 -19 -1 -8 3 -5 6 6 6 11 1 17 -2 13 -5z m-420
-84 c80 -44 191 -130 253 -197 52 -55 54 -58 31 -61 -14 -2 -32 4 -44 17 -18
17 -19 22 -6 38 13 16 12 17 -3 4 -16 -12 -25 -7 -85 49 -67 63 -137 112 -206
144 -36 17 -42 36 -10 36 8 0 40 -14 70 -30z m-139 1 c9 -5 4 -15 -18 -36
l-30 -29 -32 30 c-18 16 -25 20 -16 9 16 -20 15 -20 -50 -21 -39 0 -86 -8
-112 -18 -25 -10 -63 -21 -85 -26 -22 -4 -69 -18 -104 -31 -54 -19 -66 -21
-85 -9 -19 12 -20 12 -7 -3 12 -15 10 -17 -25 -17 -22 0 -57 -3 -79 -6 l-40
-6 26 26 c23 25 106 56 94 35 -3 -4 7 -2 22 6 15 8 34 15 42 15 7 0 77 21 155
46 98 31 154 44 183 42 22 -2 39 1 36 5 -6 10 105 -1 125 -12z m1115 -2 c-6
-6 -38 -13 -71 -14 -130 -5 -281 -73 -402 -181 -51 -46 -53 -46 -21 -9 76 88
179 155 295 190 80 25 219 34 199 14z m168 -3 c52 -8 135 -23 184 -34 50 -12
128 -28 175 -37 46 -9 86 -18 88 -20 5 -5 -46 -28 -63 -29 -5 -1 -14 -7 -20
-13 -5 -7 -37 -15 -70 -19 l-60 -7 45 49 45 49 -50 -47 c-47 -44 -52 -47 -85
-39 -44 11 -69 21 -161 64 -112 53 -149 67 -176 67 -22 0 -24 2 -13 15 15 19
42 19 161 1z m-1184 -32 c81 -45 125 -79 203 -155 72 -70 74 -74 48 -77 -20
-2 -42 9 -87 46 -34 27 -113 75 -176 108 l-115 58 22 23 c28 30 47 29 105 -3z
m972 -11 c-13 -17 -13 -17 7 0 11 9 26 17 32 17 22 0 106 -32 186 -71 169 -83
260 -96 361 -52 33 14 78 28 101 30 40 5 42 4 57 -34 l15 -38 -37 -8 c-52 -12
-276 -4 -293 11 -8 6 -17 10 -19 7 -3 -2 -29 2 -59 10 -105 28 -234 46 -328
46 l-95 0 29 32 c22 25 20 24 -12 -6 -23 -21 -45 -37 -50 -35 -23 6 -151 -15
-200 -33 -30 -11 -77 -39 -105 -61 -75 -59 -70 -40 8 32 96 88 295 177 349
156 8 -3 12 -2 9 4 -4 6 7 10 26 10 28 0 30 -2 18 -17z m-1154 -24 c22 -5 47
-11 55 -13 40 -10 111 -43 170 -79 86 -53 107 -73 50 -48 -25 11 -63 23 -85
26 -23 4 -54 20 -75 39 -34 30 -34 30 -10 2 l25 -29 -49 7 c-27 3 -67 6 -89 6
l-41 0 39 43 c37 39 36 39 -10 -5 -39 -37 -58 -48 -83 -48 -31 0 -151 -29
-203 -48 -13 -5 -27 -10 -32 -11 -4 0 -27 -11 -51 -25 -29 -16 -73 -28 -132
-35 -113 -14 -207 -14 -199 -1 3 6 32 10 63 10 111 0 202 34 362 135 75 48
170 82 230 84 14 0 43 -4 65 -10z m568 -154 l-19 -37 -18 26 c-11 18 -14 32
-8 44 5 9 13 35 17 57 l7 39 20 -46 c19 -45 19 -46 1 -83z m-1153 90 c-14 -15
-35 -25 -52 -25 -23 0 -28 4 -28 25 0 23 3 25 52 25 l51 0 -23 -25z m241 -16
c-37 -21 -56 -28 -64 -20 -7 7 -1 13 19 21 16 6 38 14 49 19 48 22 45 8 -4
-20z m1334 -59 c-58 -57 -63 -60 -123 -66 -53 -6 -66 -4 -84 12 -19 16 -20 16
-9 2 12 -16 11 -18 -12 -18 -51 0 -39 23 31 63 48 27 156 56 247 66 5 1 -17
-26 -50 -59z m239 43 c20 -17 20 -17 6 1 -14 18 -12 19 55 12 65 -7 136 -22
304 -63 49 -12 93 -14 185 -10 67 3 130 7 140 9 10 2 21 -3 23 -10 4 -9 -10
-12 -54 -11 -32 0 -89 -4 -128 -10 -38 -6 -112 -11 -164 -11 l-94 0 24 28 24
27 -30 -27 -30 -26 -230 1 c-126 0 -250 -3 -275 -7 l-45 -8 60 61 59 61 75 0
c56 0 79 -4 95 -17z m-1644 -7 c9 -12 5 -18 -27 -34 -59 -30 -154 -54 -203
-50 l-44 3 31 35 c32 36 37 37 219 59 6 0 17 -5 24 -13z m1103 -2 c3 -4 -6
-23 -21 -43 -14 -20 -27 -38 -29 -40 -2 -2 -5 -2 -8 0 -6 7 35 89 44 89 4 0
10 -3 14 -6z m-1323 -7 c0 -2 -9 -12 -19 -21 -19 -17 -19 -17 -14 3 3 12 12
21 19 21 8 0 14 -2 14 -3z m747 -6 c84 -13 154 -35 203 -65 l35 -21 -45 -5
c-40 -5 -49 -2 -80 25 -30 26 -32 26 -12 4 17 -19 20 -29 12 -34 -17 -11 -400
-19 -400 -9 0 4 21 31 47 59 l48 50 -57 -55 c-55 -52 -60 -54 -105 -51 -46 3
-88 25 -78 41 7 11 146 52 210 62 53 9 157 8 222 -1z m234 -58 c13 -16 12 -17
-3 -4 -10 7 -18 15 -18 17 0 8 8 3 21 -13z m-666 -23 c18 -20 17 -20 -23 -20
-46 0 -54 11 -19 28 12 6 22 11 23 11 0 1 9 -8 19 -19z m2245 -9 c0 -21 -32
-25 -334 -36 -149 -5 -149 -5 -131 15 16 17 32 20 114 21 53 1 125 5 161 9 36
4 93 8 128 8 55 2 62 0 62 -17z m-588 -2 c11 -6 18 -7 15 -2 -3 4 22 6 55 5
58 -4 59 -4 42 -23 -17 -19 -33 -20 -292 -19 -151 1 -276 -1 -279 -4 -3 -3
-127 -5 -276 -6 -257 0 -269 0 -256 17 7 10 2 8 -12 -5 l-26 -22 -18 20 c-18
20 -18 20 16 21 19 0 43 3 54 6 11 2 101 4 200 3 288 -2 343 -4 338 -13 -3 -5
3 -4 13 2 42 24 388 40 426 20z m-1603 -43 c11 -8 13 -8 7 2 -5 8 1 12 19 12
17 0 24 -4 19 -12 -5 -7 -3 -8 7 -2 8 4 82 7 164 6 83 -2 186 2 230 7 62 7 83
7 93 -3 11 -10 -25 -15 -190 -24 -276 -16 -306 -17 -314 -9 -4 4 -13 2 -21 -4
-20 -17 -496 -8 -517 10 -9 8 -14 16 -11 20 3 3 45 4 93 3 48 -1 116 2 152 7
80 11 250 3 269 -13z"/>
<path d="M1360 2225 c13 -14 26 -25 28 -25 3 0 -5 11 -18 25 -13 14 -26 25
-28 25 -3 0 5 -11 18 -25z"/>
<path d="M2319 2013 c-13 -16 -12 -17 4 -4 9 7 17 15 17 17 0 8 -8 3 -21 -13z"/>
<path d="M1941 3474 c-19 -24 -21 -25 -43 -10 -12 9 -26 16 -31 16 -10 0 -5
-31 8 -63 5 -13 3 -16 -8 -11 -15 5 -77 -32 -77 -47 0 -4 16 -13 35 -20 34
-13 43 -31 27 -56 -5 -8 -13 -9 -22 -3 -18 11 -130 13 -130 3 0 -5 16 -21 35
-36 41 -33 44 -47 11 -47 -26 0 -56 23 -56 43 0 7 -4 19 -10 27 -7 12 -12 12
-29 -4 -16 -15 -18 -23 -10 -38 15 -27 76 -51 116 -45 l33 6 1 -52 c1 -29 1
-60 0 -69 -4 -30 14 -20 38 23 28 50 39 54 86 35 21 -9 39 -16 40 -16 9 0 -2
91 -12 102 -7 6 -13 16 -13 21 0 11 95 0 122 -14 21 -11 24 -29 4 -29 -25 0
-66 -41 -66 -66 0 -34 13 -30 53 16 19 22 40 40 48 40 24 0 119 -107 119 -133
0 -7 -40 4 -70 20 -29 15 -70 17 -70 4 0 -12 89 -53 100 -46 6 3 18 1 27 -4
17 -10 16 -10 -2 -11 -23 0 -65 -26 -65 -41 0 -16 36 -10 63 11 35 28 44 25
57 -17 13 -40 26 -60 34 -52 3 3 -11 45 -31 94 l-36 89 22 38 c22 39 28 83 12
93 -13 7 -41 -34 -41 -61 0 -47 -10 -55 -34 -27 -29 34 -23 63 20 91 19 12 34
26 34 32 0 17 -16 19 -42 6 l-25 -13 19 38 c21 43 24 93 6 87 -26 -9 -51 -58
-57 -115 l-6 -58 -13 45 c-12 41 -11 50 13 107 14 35 25 77 25 94 0 28 -2 30
-17 18 -9 -8 -22 -29 -30 -47 l-14 -33 -26 21 c-51 40 -59 16 -14 -46 15 -21
31 -55 34 -74 4 -19 9 -46 13 -59 l7 -25 -29 21 c-16 12 -46 39 -66 60 -36 37
-37 39 -26 80 11 44 3 133 -12 133 -5 0 -18 -12 -29 -26z m21 -53 c-5 -3 -12
-13 -15 -21 -3 -8 -6 -1 -6 16 -1 38 22 67 27 33 2 -12 0 -24 -6 -28z m-50
-23 c-8 -8 -12 -9 -12 -1 0 6 -3 20 -6 30 -7 17 -6 17 12 1 14 -14 16 -20 6
-30z m-27 -18 c-3 -5 -10 -10 -16 -10 -5 0 -9 5 -9 10 0 6 7 10 16 10 8 0 12
-4 9 -10z m189 -6 c5 -14 4 -15 -9 -4 -17 14 -19 20 -6 20 5 0 12 -7 15 -16z
m-216 -6 c18 -18 15 -27 -8 -21 -11 3 -20 12 -20 19 0 17 12 18 28 2z m318
-40 c-12 -40 -17 -50 -22 -46 -5 6 13 58 20 58 3 0 4 -6 2 -12z m-238 -15 c-2
-13 -11 -17 -31 -15 -20 3 -27 -1 -28 -15 0 -11 -3 -13 -6 -5 -7 17 17 44 34
38 7 -3 13 -1 13 4 0 6 5 10 11 10 6 0 9 -8 7 -17z m53 -40 c19 -21 20 -25 6
-20 -10 4 -30 7 -43 7 -22 0 -23 3 -14 20 14 26 22 25 51 -7z m-226 -13 c3 -5
15 -10 25 -10 24 0 35 -16 16 -23 -8 -3 -27 5 -43 19 -15 13 -23 24 -16 24 6
0 15 -4 18 -10z m125 -31 c0 -5 -9 -9 -20 -9 -19 0 -26 11 -14 23 8 8 34 -3
34 -14z m-61 -56 c-8 -9 -8 -13 -1 -13 6 0 16 8 21 18 8 13 10 14 11 2 0 -8
-11 -28 -24 -45 l-25 -30 1 41 c0 28 5 41 14 41 10 0 11 -4 3 -14z m105 -5
c-3 -13 -8 -24 -9 -26 -6 -7 -45 19 -45 30 0 7 5 6 15 -2 12 -10 15 -10 15 4
0 9 7 16 16 16 11 0 14 -6 8 -22z m106 -2 c0 -2 -8 -10 -17 -17 -16 -13 -17
-12 -4 4 13 16 21 21 21 13z"/>
<path d="M2403 3277 c-15 -19 -35 -96 -43 -162 -6 -56 -8 -58 -15 -27 -9 37
-24 43 -26 10 -3 -46 3 -103 12 -114 5 -7 7 -31 3 -55 -7 -53 10 -37 27 25 17
62 48 86 114 86 40 0 57 4 61 15 3 8 14 17 25 20 22 7 25 33 5 41 -12 4 -12
10 1 35 22 43 14 64 -25 64 -19 0 -32 5 -32 13 0 16 -45 33 -65 26 -9 -4 -15
0 -15 9 0 21 -16 30 -27 14z m27 -52 c0 -1 -8 -10 -19 -19 -17 -16 -18 -16
-14 8 3 16 10 23 19 19 8 -3 14 -6 14 -8z m60 -16 c0 -10 -4 -21 -10 -24 -6
-3 -7 1 -4 9 4 11 0 16 -10 16 -9 0 -16 6 -16 14 0 9 7 12 20 9 11 -3 20 -14
20 -24z m-50 -16 c0 -10 -9 -31 -21 -48 l-21 -30 7 40 c4 22 9 43 11 47 9 14
24 8 24 -9z m116 -15 c-3 -13 -6 -26 -6 -30 0 -5 -4 -8 -8 -8 -5 0 -8 14 -8
30 0 19 5 30 14 30 10 0 13 -7 8 -22z m-169 -30 c-3 -8 -6 -5 -6 6 -1 11 2 17
5 13 3 -3 4 -12 1 -19z m123 19 c0 -2 -14 -16 -30 -32 l-31 -29 16 32 c9 18
23 32 31 32 8 0 14 -1 14 -3z m-66 -32 c-9 -14 -18 -25 -21 -25 -5 0 5 18 20
38 17 22 18 13 1 -13z m101 -35 c18 -8 18 -9 2 -9 -10 -1 -20 -8 -23 -16 -4
-8 -18 -15 -33 -14 -25 0 -25 0 -3 9 30 12 28 23 -3 18 -20 -4 -23 -3 -14 8
13 16 44 17 74 4z m-185 -91 c0 -11 -4 -17 -10 -14 -5 3 -10 15 -10 26 0 11 5
17 10 14 6 -3 10 -15 10 -26z"/>
<path d="M2405 2965 c-18 -19 -41 -57 -50 -84 -15 -46 -45 -88 -45 -63 0 6 5
14 10 17 6 3 10 14 10 23 0 14 -2 15 -10 2 -10 -16 -11 -15 -28 20 -12 24 -12
23 -7 -10 3 -19 8 -62 11 -95 7 -82 13 -107 24 -100 6 4 7 17 4 31 -18 73 29
146 112 170 56 16 73 29 57 45 -6 6 -25 5 -51 -4 l-42 -15 25 30 c23 27 34 68
19 68 -4 0 -21 -16 -39 -35z"/>
<path d="M2176 2903 c-9 -10 -7 -83 3 -83 11 0 21 25 21 55 0 25 -12 39 -24
28z"/>
<path d="M2110 2836 c0 -31 39 -81 53 -67 7 7 2 23 -17 51 -30 46 -36 49 -36
16z"/>
<path d="M2220 2840 c0 -21 -1 -26 -16 -48 -24 -36 -10 -37 20 -2 29 35 34 60
11 60 -8 0 -15 -4 -15 -10z"/>
<path d="M2555 2840 c-4 -6 -2 -17 4 -24 9 -10 8 -15 -4 -20 -26 -9 -17 -27
10 -20 24 6 25 5 15 -20 -9 -24 -7 -26 16 -26 14 0 23 4 20 9 -4 5 0 11 6 14
10 3 8 13 -6 41 -22 41 -51 63 -61 46z"/>
<path d="M2785 2750 c3 -5 10 -10 16 -10 5 0 9 5 9 10 0 6 -7 10 -16 10 -8 0
-12 -4 -9 -10z"/>
<path d="M2827 2735 c-4 -8 -2 -17 3 -20 6 -4 10 3 10 14 0 25 -6 27 -13 6z"/>
<path d="M2750 2700 c0 -13 5 -20 13 -17 6 2 12 10 12 17 0 7 -6 15 -12 18 -8
2 -13 -5 -13 -18z"/>
<path d="M2177 1599 c-40 -23 -47 -60 -47 -249 0 -197 6 -226 55 -248 33 -15
57 -15 90 0 37 17 55 57 55 123 l0 55 -34 0 c-33 0 -34 -1 -38 -50 -6 -57 -10
-65 -33 -57 -23 10 -23 345 1 354 21 8 34 -14 34 -59 0 -37 1 -38 36 -38 l36
0 -4 66 c-4 58 -8 70 -32 90 -29 26 -86 32 -119 13z"/>
<path d="M2370 1355 l0 -255 90 0 90 0 0 40 0 40 -50 0 -50 0 0 65 0 65 35 0
c35 0 35 0 35 45 0 45 0 45 -35 45 l-35 0 0 59 0 60 48 3 47 3 0 40 0 40 -87
3 -88 3 0 -256z"/>
<path d="M2635 1598 c-5 -13 -75 -471 -75 -488 0 -6 18 -10 39 -10 l39 0 7 50
c7 49 8 50 41 50 32 0 34 -2 34 -34 0 -56 8 -66 51 -66 36 0 39 2 34 23 -2 12
-18 114 -35 227 -42 287 -33 260 -86 260 -27 0 -46 -5 -49 -12z m64 -290 c1
-22 -4 -28 -19 -28 -16 0 -19 5 -16 23 3 12 8 45 12 72 l8 50 7 -45 c4 -25 8
-57 8 -72z"/>
<path d="M2865 1586 c-33 -33 -37 -66 -33 -265 l3 -173 33 -29 c67 -60 153
-22 167 73 11 71 5 83 -38 86 l-37 3 0 -51 c0 -37 -4 -52 -16 -57 -28 -11 -34
19 -34 177 0 158 6 188 34 177 11 -5 16 -19 16 -52 l0 -45 40 0 c38 0 40 1 40
33 0 53 -19 105 -47 127 -37 29 -97 27 -128 -4z"/>
<path d="M2190 740 c0 -45 0 -44 -34 -29 -53 25 -118 -35 -101 -93 12 -40 36
-58 75 -58 20 0 41 5 48 12 9 9 12 9 12 0 0 -7 7 -12 15 -12 12 0 15 19 15
110 0 91 -3 110 -15 110 -11 0 -15 -11 -15 -40z m-14 -75 c18 -28 11 -60 -17
-76 -47 -25 -94 31 -64 77 21 32 60 31 81 -1z"/>
<path d="M3126 765 c-3 -9 1 -18 10 -22 19 -7 28 2 21 22 -8 19 -23 19 -31 0z"/>
<path d="M1241 728 c-10 -24 -30 -69 -45 -102 -31 -69 -30 -66 -11 -66 9 0 21
11 27 25 10 22 17 25 63 25 46 0 53 -3 63 -25 6 -14 18 -25 27 -25 8 0 15 2
15 3 0 21 -93 203 -105 205 -10 2 -22 -11 -34 -40z m69 -80 c0 -5 -16 -8 -35
-8 -19 0 -35 2 -35 4 0 2 7 21 16 42 l16 39 19 -35 c10 -19 18 -38 19 -42z"/>
<path d="M3590 731 c0 -11 -6 -22 -12 -25 -10 -5 -10 -7 0 -12 7 -3 12 -26 12
-57 0 -71 9 -82 63 -78 28 2 21 31 -8 31 -23 0 -25 3 -25 50 0 47 2 50 25 50
14 0 25 5 25 10 0 6 -11 10 -25 10 -18 0 -25 5 -25 20 0 11 -7 20 -15 20 -8 0
-15 -9 -15 -19z"/>
<path d="M1404 707 c-3 -8 -3 -56 -2 -108 3 -80 6 -94 21 -97 13 -3 17 4 17
30 0 33 0 33 44 30 37 -3 46 0 65 23 25 33 26 56 6 95 -17 32 -63 47 -94 31
-13 -7 -22 -8 -26 -1 -9 14 -25 12 -31 -3z m120 -39 c21 -30 20 -44 -5 -69
-14 -14 -27 -18 -42 -13 -28 9 -37 22 -37 56 0 47 57 64 84 26z"/>
<path d="M1600 640 c0 -64 3 -80 15 -80 11 0 15 12 15 49 0 41 4 53 25 69 14
11 25 25 25 31 0 14 -6 14 -31 1 -13 -7 -19 -7 -19 0 0 5 -7 10 -15 10 -12 0
-15 -16 -15 -80z"/>
<path d="M1718 690 c-25 -26 -29 -36 -24 -63 9 -45 37 -69 80 -69 40 0 73 19
57 35 -5 5 -17 4 -31 -3 -17 -9 -29 -9 -46 -1 -41 18 -27 31 36 31 58 0 60 1
60 25 0 34 -42 75 -75 75 -16 0 -39 -12 -57 -30z m90 -12 c21 -21 13 -28 -33
-28 -25 0 -45 4 -45 8 0 15 24 32 45 32 12 0 26 -5 33 -12z"/>
<path d="M1880 640 c0 -64 3 -80 15 -80 11 0 15 12 15 49 0 32 6 55 16 65 37
38 74 5 74 -65 0 -37 4 -49 15 -49 18 0 21 82 5 124 -11 30 -51 43 -86 27 -15
-6 -24 -7 -24 -1 0 6 -7 10 -15 10 -12 0 -15 -16 -15 -80z"/>
<path d="M2284 707 c-32 -18 -20 -37 15 -24 33 12 61 4 61 -18 0 -11 -11 -15
-39 -15 -59 0 -87 -35 -58 -74 12 -17 20 -18 90 -15 l37 1 0 63 c0 55 -3 66
-22 79 -27 19 -55 20 -84 3z m76 -92 c0 -9 -11 -21 -25 -27 -21 -10 -29 -9
-43 6 -15 15 -15 18 -2 26 24 16 70 12 70 -5z"/>
<path d="M2430 640 c0 -64 3 -80 15 -80 10 0 15 10 15 34 0 49 15 83 40 91 34
11 50 -12 50 -71 0 -41 4 -54 15 -54 11 0 15 12 15 49 0 64 23 91 64 75 12 -5
16 -21 16 -65 0 -53 2 -59 21 -59 20 0 21 4 17 60 -6 87 -51 125 -103 86 -16
-12 -22 -12 -43 2 -20 13 -29 14 -55 4 -21 -8 -33 -9 -35 -2 -2 5 -10 10 -18
10 -11 0 -14 -18 -14 -80z"/>
<path d="M2748 690 c-25 -26 -29 -36 -24 -63 9 -46 37 -69 81 -69 77 0 109 88
51 138 -37 33 -71 30 -108 -6z m98 -28 c15 -30 7 -60 -18 -73 -47 -25 -93 32
-63 78 21 31 64 28 81 -5z"/>
<path d="M2926 707 c-28 -21 -17 -59 24 -79 19 -10 35 -24 35 -30 0 -14 -39
-16 -67 -3 -13 5 -18 3 -18 -9 0 -16 39 -31 74 -28 58 4 59 73 1 92 -48 16
-48 45 0 37 25 -4 35 -2 35 8 0 25 -55 34 -84 12z"/>
<path d="M3128 628 c-3 -88 -4 -93 -25 -96 -35 -5 -29 -32 7 -32 41 0 50 23
50 129 0 73 -3 91 -15 91 -11 0 -15 -19 -17 -92z"/>
<path d="M3200 656 c0 -45 5 -69 16 -80 18 -19 75 -21 92 -4 9 9 12 9 12 0 0
-7 7 -12 15 -12 12 0 15 16 15 80 0 64 -3 80 -15 80 -11 0 -15 -11 -15 -39 0
-64 -15 -91 -49 -91 -34 0 -41 13 -41 81 0 37 -4 49 -15 49 -12 0 -15 -14 -15
-64z"/>
<path d="M3400 640 c0 -64 3 -80 15 -80 12 0 15 13 15 55 0 49 3 57 25 67 38
17 55 -4 55 -68 0 -41 4 -54 15 -54 12 0 15 14 15 65 0 58 -2 66 -26 82 -21
13 -32 15 -55 6 -16 -6 -29 -7 -29 -2 0 5 -7 9 -15 9 -12 0 -15 -16 -15 -80z"/>
<path d="M3708 690 c-25 -26 -29 -36 -24 -63 9 -46 37 -69 81 -69 77 0 109 88
51 138 -37 33 -71 30 -108 -6z m98 -28 c15 -30 7 -60 -18 -73 -47 -25 -93 32
-63 78 21 31 64 28 81 -5z"/>
<path d="M3886 707 c-28 -21 -17 -59 24 -79 19 -10 35 -24 35 -30 0 -14 -39
-16 -67 -3 -13 5 -18 3 -18 -9 0 -16 39 -31 74 -28 58 4 59 73 1 92 -48 16
-48 45 0 37 25 -4 35 -2 35 8 0 25 -55 34 -84 12z"/>
</g>
</svg>
